<svg width="183" height="54" viewBox="0 0 183 54" fill="none" xmlns="http://www.w3.org/2000/svg">
<g id="Group 1000001283 2" clip-path="url(#clip0_334_7932)">
<path id="Vector" d="M0 9.00435H6.84955V12.4749C8.5166 10.1767 10.7698 8.55469 14.3752 8.55469C20.009 8.55469 25.3714 12.9712 25.3714 21.0381V21.128C25.3714 29.1948 20.099 33.6113 14.3752 33.6113C10.7248 33.6113 8.47156 31.9443 6.84955 30.0059V40.371H0V9.00435ZM18.5219 21.1264V21.0365C18.5219 17.0263 15.8174 14.3668 12.6182 14.3668C9.41915 14.3668 6.75961 17.0263 6.75961 21.0365V21.1264C6.75961 25.1365 9.41915 27.796 12.6182 27.796C15.8174 27.796 18.5219 25.1831 18.5219 21.1264Z" fill="black"/>
<path id="Vector_2" d="M27.3887 9.00289H34.2382V13.8706C35.6354 10.5815 37.8437 8.37333 41.9438 8.5532V15.7192H41.584C37.0326 15.7192 34.2382 18.4236 34.2382 24.2357V33.1586H27.3887V9.00289Z" fill="black"/>
<path id="Vector_3" d="M42.2598 21.216V21.1261C42.2598 14.1865 47.8486 8.55273 55.3743 8.55273C62.9 8.55273 68.3989 14.0501 68.3989 21.0361V21.1261C68.3989 28.0655 62.8101 33.6993 55.2844 33.6993C47.7587 33.6993 42.2598 28.202 42.2598 21.216ZM61.6376 21.216V21.1261C61.6376 17.5656 59.0697 14.4563 55.2828 14.4563C51.4958 14.4563 49.0194 17.4306 49.0194 21.0361V21.1261C49.0194 24.6865 51.5874 27.7957 55.3743 27.7957C59.1612 27.7957 61.6376 24.8214 61.6376 21.216Z" fill="black"/>
<path id="Vector_4" d="M120.172 0.259766H127.021V12.4268C128.599 10.3984 130.672 8.55149 134.095 8.55149C139.323 8.55149 142.298 11.9321 142.298 17.5193V33.1568H135.448V19.6826C135.448 16.4385 133.961 14.7699 131.301 14.7699C128.641 14.7699 127.019 16.4369 127.019 19.6826V33.1568H120.17V0.259766H120.172Z" fill="black"/>
<path id="Vector_5" d="M143.777 26.2184V26.1285C143.777 20.901 147.787 18.4229 153.511 18.4229C155.989 18.4229 157.658 18.8293 159.415 19.4139V19.0075C159.415 16.1232 157.658 14.591 154.232 14.591C151.573 14.591 149.77 15.0423 147.563 15.8983L145.851 10.6708C148.51 9.54506 151.123 8.73242 155.224 8.73242C159.01 8.73242 161.624 9.67834 163.382 11.4369C165.183 13.2388 165.996 15.8983 165.996 19.1424V33.1579H159.372V30.5433C157.705 32.3902 155.451 33.6076 152.071 33.6076C147.519 33.6076 143.779 31.0379 143.779 26.2168L143.777 26.2184ZM159.504 24.6413V23.424C158.287 22.8827 156.8 22.523 155.133 22.523C152.204 22.523 150.402 23.6954 150.402 25.857V25.947C150.402 27.7939 151.934 28.8763 154.142 28.8763C157.388 28.8763 159.504 27.1644 159.504 24.6397V24.6413Z" fill="black"/>
<path id="Vector_6" d="M170.074 26.3096V14.8638H167.189V9.0051H170.074V2.83008H176.924V9.0051H182.602V14.8638H176.924V25.1838C176.924 26.7609 177.645 27.527 179.131 27.527C180.349 27.527 181.475 27.2571 182.51 26.671V32.1683C181.068 33.0243 179.401 33.5655 177.103 33.5655C172.957 33.5655 170.074 31.8985 170.074 26.3096Z" fill="black"/>
<path id="Vector_7" d="M70.9352 16.1458C70.8629 16.3 69.8704 20.4001 70.402 23.3293C70.9352 26.2587 72.9684 28.6902 75.7274 29.7389C78.4866 30.7892 81.3918 30.0698 81.3918 30.0698C81.3918 30.0698 75.88 27.1886 76.357 21.725C76.9127 15.3701 83.9565 15.8117 83.9565 15.8117C83.9565 15.8117 80.616 12.5516 77.1792 13.1041C73.7424 13.6565 71.3704 15.2046 70.9352 16.1425V16.1458Z" fill="url(#paint0_linear_334_7932)"/>
<path id="Vector_8" d="M117.097 16.1458C117.169 16.3 118.162 20.4001 117.631 23.3293C117.097 26.2587 115.064 28.6902 112.304 29.7389C109.546 30.7892 106.641 30.0698 106.641 30.0698C106.641 30.0698 112.152 27.1886 111.675 21.725C111.12 15.3701 104.076 15.8117 104.076 15.8117C104.076 15.8117 107.416 12.5516 110.853 13.1041C114.29 13.6565 116.662 15.2046 117.097 16.1425V16.1458Z" fill="url(#paint1_linear_334_7932)"/>
<path id="Vector_9" d="M90.6424 13.4902C90.5538 13.4066 90.4452 13.3087 90.3165 13.1995C89.5427 12.5362 88.0796 11.4361 86.3398 10.426C82.4133 8.14383 77.9921 7.66524 74.2324 10.5978C69.8915 13.9848 70.3524 18.7385 70.293 20.1791C70.3315 19.2444 71.9198 17.5581 72.4996 16.8804C73.1853 16.0774 73.9627 15.3467 74.8555 14.8167C76.362 13.9206 78.0611 13.7278 79.7313 14.1486C82.2191 14.7734 84.5073 16.2284 86.1969 17.6561" fill="url(#paint2_linear_334_7932)"/>
<path id="Vector_10" d="M114.012 26.784C112.348 28.0848 110.318 28.5377 108.308 28.0222C104.516 27.049 101.505 23.413 99.346 20.1641C99.1521 20.3552 98.0341 21.4681 97.8435 21.6528C96.5709 22.8894 96.2417 23.2589 94.9648 24.5292C96.7898 27.2401 98.8789 30.0858 101.709 31.7384C103.988 33.0682 106.602 34.0157 109.226 33.6014C112.931 33.0168 116.358 30.1501 117.379 26.2428C117.74 24.8584 117.788 23.4291 117.788 22.0029C116.9 24.0923 114.883 26.1078 114.014 26.7872L114.012 26.784Z" fill="url(#paint3_linear_334_7932)"/>
<path id="Vector_11" d="M117.784 20.1775C117.746 19.2428 116.157 17.5565 115.578 16.8788C114.892 16.0758 114.115 15.3451 113.222 14.8151C111.715 13.9189 110.016 13.7262 108.346 14.147C104.278 15.17 100.827 18.7482 97.8398 21.6534C94.2057 25.1882 90.722 29.1984 86.3684 31.7375C84.0897 33.0672 81.4747 34.0147 78.8505 33.6004C75.1455 33.0158 71.7184 30.1491 70.6985 26.2417C70.3372 24.8573 70.2891 23.428 70.2891 22.0019C71.1772 24.0913 73.1943 26.1068 74.0631 26.7862C75.7269 28.087 77.7569 28.5399 79.7675 28.0244C83.9334 26.9548 87.433 23.2433 90.4922 20.2706C92.455 18.4029 94.3068 16.5657 96.1727 14.7509C97.8715 13.1 99.7074 11.6047 101.735 10.426C105.661 8.14383 110.082 7.66524 113.842 10.5978C118.183 13.9848 117.722 18.7385 117.782 20.1791L117.784 20.1775Z" fill="url(#paint4_linear_334_7932)"/>
<path id="Vector_12" d="M41.291 51.2325L44.3525 45.8223H45.5689L48.6724 51.2325H47.2569L46.6069 50.0476H43.1783L42.5492 51.2325H41.291ZM43.713 49.0726H46.0826L44.9188 46.8707L43.713 49.0726ZM50.0195 51.2325V46.7973H50.7639L54.528 49.7436V46.7973H55.5031V51.2325H54.7586L51.0051 48.2443V51.2325H50.0195ZM97.7293 46.7869H93.7977V50.2154H97.7293V49.0096H95.6745V48.087H98.956V49.9533C98.956 50.9703 98.6309 51.2325 97.614 51.2325H93.8813C92.8643 51.2325 92.5393 50.9703 92.5393 49.9533V47.1014C92.5393 46.0844 92.8643 45.8223 93.8813 45.8223H97.614C98.5992 45.8223 98.956 46.0739 98.956 47.0489C98.956 47.0909 98.956 47.1328 98.956 47.1748L97.7293 47.395V46.7869ZM101.226 51.2325V46.7973H105.221C105.933 46.7973 106.258 47.0385 106.258 47.6571V48.7056C106.258 49.3137 105.933 49.5549 105.221 49.5549H104.612L106.72 51.2325H105.168L103.312 49.5549H102.295V51.2325H101.226ZM104.759 47.5628H102.295V48.7895H104.759C105.084 48.7895 105.252 48.7265 105.252 48.433V47.9192C105.252 47.6257 105.084 47.5628 104.759 47.5628ZM107.94 47.8459C107.94 46.9966 108.223 46.7973 109.094 46.7973H112.522C113.392 46.7973 113.675 46.9966 113.675 47.8459V50.1839C113.675 51.0227 113.392 51.2325 112.522 51.2325H109.094C108.213 51.2325 107.94 51.0227 107.94 50.1839V47.8459ZM109.02 50.3832H112.595V47.6152H109.02V50.3832ZM116.62 46.7973V50.4041H119.703V46.7973H120.793V50.1839C120.793 51.0123 120.51 51.2325 119.629 51.2325H116.694C115.813 51.2325 115.54 51.0123 115.54 50.1839V46.7973H116.62ZM126.302 47.5628H123.838V48.7371H126.302C126.627 48.7371 126.795 48.6741 126.795 48.3806V47.9192C126.795 47.6257 126.627 47.5628 126.302 47.5628ZM122.769 51.2325V46.7973H126.764C127.476 46.7973 127.801 47.028 127.801 47.6571V48.6427C127.801 49.2613 127.476 49.5025 126.764 49.5025H123.838V51.2325H122.769ZM138.345 46.7869H134.949V50.2154H138.345V49.0516L139.604 49.3137V49.9533C139.604 50.9703 139.279 51.2325 138.262 51.2325H135.032C134.015 51.2325 133.69 50.9703 133.69 49.9533V47.1014C133.69 46.0844 134.015 45.8223 135.032 45.8223H138.262C139.279 45.8223 139.604 46.0844 139.604 47.1014V47.6152L138.345 47.8144V46.7869ZM141.699 47.8459C141.699 46.9966 141.982 46.7973 142.852 46.7973H146.28C147.151 46.7973 147.433 46.9966 147.433 47.8459V50.1839C147.433 51.0227 147.151 51.2325 146.28 51.2325H142.852C141.971 51.2325 141.699 51.0227 141.699 50.1839V47.8459ZM142.778 50.3832H146.354V47.6152H142.778V50.3832ZM149.299 51.2325V46.7973H150.168L152.339 49.429L154.499 46.7973H155.369V51.2325H154.362V48.1814L152.381 50.6978H152.171L150.168 48.2547V51.2325H149.299ZM160.869 47.5628H158.406V48.7371H160.869C161.194 48.7371 161.362 48.6741 161.362 48.3806V47.9192C161.362 47.6257 161.194 47.5628 160.869 47.5628ZM157.336 51.2325V46.7973H161.331C162.044 46.7973 162.369 47.028 162.369 47.6571V48.6427C162.369 49.2613 162.044 49.5025 161.331 49.5025H158.406V51.2325H157.336ZM164.762 49.45H166.796L165.759 47.6047L164.762 49.45ZM162.665 51.2325L165.297 46.7973H166.335L169.009 51.2325H167.792L167.237 50.2574H164.301L163.745 51.2325H162.665ZM170.115 51.2325V46.7973H170.859L174.624 49.7436V46.7973H175.598V51.2325H174.854L171.101 48.2443V51.2325H170.115ZM179.256 51.2325V49.2404L176.835 46.7973H178.292L179.875 48.454L181.48 46.7973H182.748L180.337 49.2194V51.2325H179.256Z" fill="black"/>
<path id="Vector_13" d="M66.6247 46.7659H63.0809V47.9297H66.457C67.474 47.9297 67.8095 48.1918 67.8095 49.2089V49.9533C67.8095 50.9703 67.474 51.2325 66.457 51.2325H63.1123C62.0953 51.2325 61.7598 50.9703 61.7598 49.9533V49.8065L62.8711 49.5759V50.2154H66.6982V48.9782H63.322C62.3049 48.9782 61.9799 48.7161 61.9799 47.6991V47.1014C61.9799 46.0844 62.3049 45.8223 63.322 45.8223H66.3941C67.3586 45.8223 67.7362 46.0739 67.7362 47.0071V47.1224L66.6247 47.3845V46.7659ZM70.4056 51.2325V45.8223H71.4226L73.9704 49.0935L76.4658 45.8223H77.4724V51.2325H76.3085V47.8877C76.3085 47.783 76.319 47.5942 76.3505 47.3111C76.2351 47.5522 76.1303 47.7515 76.0359 47.8773L74.0019 50.5824H73.7502L71.7161 47.8668C71.5903 47.6991 71.475 47.5208 71.3911 47.3111C71.4121 47.5313 71.4226 47.7095 71.4226 47.8877V51.2325H70.4056ZM84.8092 46.7659H81.2656V47.9297H84.642C85.659 47.9297 85.9941 48.1918 85.9941 49.2089V49.9533C85.9941 50.9703 85.659 51.2325 84.642 51.2325H81.2971C80.28 51.2325 79.9445 50.9703 79.9445 49.9533V49.8065L81.0559 49.5759V50.2154H84.8827V48.9782H81.5067C80.4897 48.9782 80.1647 48.7161 80.1647 47.6991V47.1014C80.1647 46.0844 80.4897 45.8223 81.5067 45.8223H84.5785C85.5437 45.8223 85.9205 46.0739 85.9205 47.0071V47.1224L84.8092 47.3845V46.7659Z" fill="#0093DA"/>
</g>
<defs>
<linearGradient id="paint0_linear_334_7932" x1="70.2462" y1="21.6768" x2="83.9582" y2="21.6768" gradientUnits="userSpaceOnUse">
<stop stop-color="#00E5FF"/>
<stop offset="0.12" stop-color="#29B8FE"/>
<stop offset="0.29" stop-color="#5E81FD"/>
<stop offset="0.46" stop-color="#8952FD"/>
<stop offset="0.62" stop-color="#AB2EFC"/>
<stop offset="0.76" stop-color="#C415FC"/>
<stop offset="0.9" stop-color="#D205FC"/>
<stop offset="1" stop-color="#D800FC"/>
</linearGradient>
<linearGradient id="paint1_linear_334_7932" x1="104.075" y1="0.260946" x2="117.784" y2="0.260946" gradientUnits="userSpaceOnUse">
<stop stop-color="#00E5FF"/>
<stop offset="0.12" stop-color="#29B8FE"/>
<stop offset="0.29" stop-color="#5E81FD"/>
<stop offset="0.46" stop-color="#8952FD"/>
<stop offset="0.62" stop-color="#AB2EFC"/>
<stop offset="0.76" stop-color="#C415FC"/>
<stop offset="0.9" stop-color="#D205FC"/>
<stop offset="1" stop-color="#D800FC"/>
</linearGradient>
<linearGradient id="paint2_linear_334_7932" x1="70.293" y1="14.3671" x2="90.6424" y2="14.3671" gradientUnits="userSpaceOnUse">
<stop stop-color="#00E5FF"/>
<stop offset="0.12" stop-color="#29B8FE"/>
<stop offset="0.29" stop-color="#5E81FD"/>
<stop offset="0.46" stop-color="#8952FD"/>
<stop offset="0.62" stop-color="#AB2EFC"/>
<stop offset="0.76" stop-color="#C415FC"/>
<stop offset="0.9" stop-color="#D205FC"/>
<stop offset="1" stop-color="#D800FC"/>
</linearGradient>
<linearGradient id="paint3_linear_334_7932" x1="94.964" y1="26.9301" x2="117.785" y2="26.9301" gradientUnits="userSpaceOnUse">
<stop stop-color="#00E5FF"/>
<stop offset="0.12" stop-color="#29B8FE"/>
<stop offset="0.29" stop-color="#5E81FD"/>
<stop offset="0.46" stop-color="#8952FD"/>
<stop offset="0.62" stop-color="#AB2EFC"/>
<stop offset="0.76" stop-color="#C415FC"/>
<stop offset="0.9" stop-color="#D205FC"/>
<stop offset="1" stop-color="#D800FC"/>
</linearGradient>
<linearGradient id="paint4_linear_334_7932" x1="70.2725" y1="22.1873" x2="117.834" y2="20.0774" gradientUnits="userSpaceOnUse">
<stop stop-color="#00E5FF"/>
<stop offset="0.12" stop-color="#29B8FE"/>
<stop offset="0.29" stop-color="#5E81FD"/>
<stop offset="0.46" stop-color="#8952FD"/>
<stop offset="0.62" stop-color="#AB2EFC"/>
<stop offset="0.76" stop-color="#C415FC"/>
<stop offset="0.9" stop-color="#D205FC"/>
<stop offset="1" stop-color="#D800FC"/>
</linearGradient>
<clipPath id="clip0_334_7932">
<rect width="183" height="53.4795" fill="white" transform="translate(0 0.259766)"/>
</clipPath>
</defs>
</svg>
